<?xml version="1.0" encoding="utf-8"?>
<!-- Generator: Adobe Illustrator 15.1.0, SVG Export Plug-In . SVG Version: 6.00 Build 0)  -->
<!DOCTYPE svg PUBLIC "-//W3C//DTD SVG 1.1//EN" "http://www.w3.org/Graphics/SVG/1.1/DTD/svg11.dtd">
<svg version="1.1" id="Ebene_1" xmlns="http://www.w3.org/2000/svg" xmlns:xlink="http://www.w3.org/1999/xlink" x="0px" y="0px"
	 width="595.28px" height="841.89px" viewBox="0 0 595.28 841.89" enable-background="new 0 0 595.28 841.89" xml:space="preserve">
<g>
	<defs>
		<rect id="SVGID_1_" x="257" y="364.362" width="81.948" height="117.638"/>
	</defs>
	<clipPath id="SVGID_2_">
		<use xlink:href="#SVGID_1_"  overflow="visible"/>
	</clipPath>
	<g clip-path="url(#SVGID_2_)">
		<path d="M272.826,387.41c-2.485,0-4.071-0.599-5.808-2.335l3.442-3.413c0.659,0.658,1.198,1.078,2.365,1.078
			c1.617,0,2.784-0.898,2.784-2.935v-13.891h5.239v14.011C280.85,384.985,276.838,387.41,272.826,387.41z"/>
		<path d="M292.552,387.41c-4.431,0-8.053-2.994-8.053-7.664v-13.831h5.239v13.711c0,1.977,1.078,3.114,2.814,3.114
			s2.874-1.138,2.874-3.114v-13.711h5.239v13.831C300.665,384.416,296.983,387.41,292.552,387.41z"/>
		<path d="M318.205,385.015c-1.826,1.887-3.861,2.396-6.197,2.396c-2.574,0-4.371-0.809-5.897-2.335
			c-2.186-2.186-2.186-4.91-2.186-8.503c0-3.592,0-6.316,2.186-8.502c1.526-1.526,3.323-2.335,5.897-2.335
			c5.479,0,7.814,3.562,8.323,7.065h-5.269c-0.42-1.617-1.258-2.396-3.055-2.396c-0.957,0-1.676,0.419-2.065,0.929
			c-0.479,0.628-0.778,1.347-0.778,5.238c0,3.893,0.299,4.641,0.778,5.27c0.39,0.509,1.108,0.898,2.065,0.898
			c1.107,0,1.856-0.33,2.336-0.839c0.598-0.599,0.808-1.467,0.808-2.275v-0.299h-3.144v-4.371h8.354v2.964
			C320.361,381.362,319.822,383.368,318.205,385.015z"/>
	</g>
	<path clip-path="url(#SVGID_2_)" fill="#FFFFFF" d="M304.125,445.524h-19.476l5.137-10.509l9.481,0.047L304.125,445.524z
		 M334.155,481.953L306.6,429.645l-24.52-0.233c1.167,1.168-1.401,4.904-1.401,4.904L257,481.953h9.901l14.245-27.088l27.322,0.046
		L323.227,482L334.155,481.953z"/>
	<path clip-path="url(#SVGID_2_)" fill="#FFFFFF" d="M295.388,418.202c-1.693-2.816-4.573-4.67-7.843-4.67
		c-5.211,0-9.435,4.704-9.435,10.508s4.224,10.508,9.435,10.508c3.702,0,6.897-2.381,8.442-5.838h-6.971v-10.508H295.388z"/>
	<path clip-path="url(#SVGID_2_)" fill="#FFFFFF" d="M294.69,417.502c2.321,0,4.203-0.836,4.203-1.868s-1.882-1.868-4.203-1.868
		c-2.321,0-4.203,0.836-4.203,1.868S292.369,417.502,294.69,417.502"/>
	<path clip-path="url(#SVGID_2_)" fill="#FFFFFF" d="M310.336,424.04c0-5.804-4.224-10.508-9.434-10.508
		c-3.3,0-6.201,1.89-7.887,4.749h7.051v10.428h-7.607c1.545,3.458,4.74,5.839,8.443,5.839
		C306.112,434.548,310.336,429.844,310.336,424.04"/>
</g>
<polyline fill="#FFFFFF" points="304.871,416.101 314.445,416.101 319.117,407.227 269.143,407.227 273.813,416.054 
	281.847,416.101 "/>
<g>
	<path fill="#FFFFFF" d="M268.394,403.611v-12.483h7.75v1.192h-6.417v4.4h5.47v1.192h-5.47v4.506h6.417v1.192H268.394z"/>
	<path fill="#FFFFFF" d="M282.125,403.717c-1.858,0-3.103-0.474-4.26-1.648l0.894-0.894c1.035,1.034,1.999,1.35,3.401,1.35
		c1.841,0,2.963-0.842,2.963-2.314c0-0.666-0.193-1.192-0.614-1.561c-0.385-0.351-0.736-0.473-1.63-0.613l-1.455-0.211
		c-0.982-0.157-1.718-0.455-2.279-0.946c-0.631-0.561-0.964-1.332-0.964-2.35c0-2.121,1.525-3.506,3.998-3.506
		c1.595,0,2.647,0.421,3.717,1.367l-0.859,0.859c-0.754-0.719-1.613-1.087-2.911-1.087c-1.683,0-2.647,0.929-2.647,2.331
		c0,0.614,0.175,1.122,0.561,1.455c0.386,0.334,0.982,0.544,1.631,0.649l1.455,0.228c1.157,0.176,1.701,0.386,2.262,0.895
		c0.666,0.578,1.052,1.42,1.052,2.454C286.438,402.366,284.737,403.717,282.125,403.717z"/>
	<path fill="#FFFFFF" d="M292.35,403.717c-1.858,0-3.103-0.474-4.26-1.648l0.894-0.894c1.035,1.034,1.999,1.35,3.401,1.35
		c1.841,0,2.963-0.842,2.963-2.314c0-0.666-0.193-1.192-0.614-1.561c-0.386-0.351-0.736-0.473-1.63-0.613l-1.455-0.211
		c-0.982-0.157-1.718-0.455-2.279-0.946c-0.631-0.561-0.964-1.332-0.964-2.35c0-2.121,1.525-3.506,3.998-3.506
		c1.595,0,2.647,0.421,3.717,1.367l-0.859,0.859c-0.754-0.719-1.613-1.087-2.911-1.087c-1.683,0-2.647,0.929-2.647,2.331
		c0,0.614,0.175,1.122,0.561,1.455c0.386,0.334,0.982,0.544,1.631,0.649l1.455,0.228c1.157,0.176,1.701,0.386,2.262,0.895
		c0.666,0.578,1.052,1.42,1.052,2.454C296.663,402.366,294.962,403.717,292.35,403.717z"/>
	<path fill="#FFFFFF" d="M299.454,403.611v-12.483h7.749v1.192h-6.416v4.4h5.47v1.192h-5.47v4.506h6.416v1.192H299.454z"/>
	<path fill="#FFFFFF" d="M317.938,403.611l-6.628-10.011v10.011h-1.333v-12.483h1.264l6.627,9.977v-9.977h1.332v12.483H317.938z"/>
</g>
</svg>
